TITLE ""
FILE "1Q_t_1429-1438.mp3" MP3
  TRACK 01 AUDIO
    TITLE "1Q_t_1429-1438_01"
    INDEX 01 00:00:00
  TRACK 02 AUDIO
    TITLE "1Q_t_1429-1438_02"
    INDEX 01 00:00:08
  TRACK 03 AUDIO
    TITLE "1Q_t_1429-1438_03"
    INDEX 01 00:01:14
  TRACK 04 AUDIO
    TITLE "1Q_t_1429-1438_04"
    INDEX 01 00:01:59
  TRACK 05 AUDIO
    TITLE "1Q_t_1429-1438_05"
    INDEX 01 00:02:56
  TRACK 06 AUDIO
    TITLE "1Q_t_1429-1438_06"
    INDEX 01 00:02:66
  TRACK 07 AUDIO
    TITLE "1Q_t_1429-1438_07"
    INDEX 01 00:04:59
  TRACK 08 AUDIO
    TITLE "1Q_t_1429-1438_08"
    INDEX 01 00:04:65
  TRACK 09 AUDIO
    TITLE "1Q_t_1429-1438_09"
    INDEX 01 00:11:65
  TRACK 10 AUDIO
    TITLE "1Q_t_1429-1438_10"
    INDEX 01 00:12:35
  TRACK 11 AUDIO
    TITLE "1Q_t_1429-1438_11"
    INDEX 01 00:13:48
  TRACK 12 AUDIO
    TITLE "1Q_t_1429-1438_12"
    INDEX 01 00:13:56
  TRACK 13 AUDIO
    TITLE "1Q_t_1429-1438_13"
    INDEX 01 00:16:01
  TRACK 14 AUDIO
    TITLE "1Q_t_1429-1438_14"
    INDEX 01 00:16:09
  TRACK 15 AUDIO
    TITLE "1Q_t_1429-1438_15"
    INDEX 01 00:20:37
  TRACK 16 AUDIO
    TITLE "1Q_t_1429-1438_16"
    INDEX 01 00:21:05
  TRACK 17 AUDIO
    TITLE "1Q_t_1429-1438_17"
    INDEX 01 00:22:12
  TRACK 18 AUDIO
    TITLE "1Q_t_1429-1438_18"
    INDEX 01 00:22:20
  TRACK 19 AUDIO
    TITLE "1Q_t_1429-1438_19"
    INDEX 01 00:23:23
  TRACK 20 AUDIO
    TITLE "1Q_t_1429-1438_20"
    INDEX 01 00:23:29
  TRACK 21 AUDIO
    TITLE "1Q_t_1429-1438_21"
    INDEX 01 00:27:25
  TRACK 22 AUDIO
    TITLE "1Q_t_1429-1438_22"
    INDEX 01 00:27:72
  TRACK 23 AUDIO
    TITLE "1Q_t_1429-1438_23"
    INDEX 01 00:29:04
  TRACK 24 AUDIO
    TITLE "1Q_t_1429-1438_24"
    INDEX 01 00:29:12
  TRACK 25 AUDIO
    TITLE "1Q_t_1429-1438_25"
    INDEX 01 00:32:46
  TRACK 26 AUDIO
    TITLE "1Q_t_1429-1438_26"
    INDEX 01 00:32:53
  TRACK 27 AUDIO
    TITLE "1Q_t_1429-1438_27"
    INDEX 01 00:38:13
  TRACK 28 AUDIO
    TITLE "1Q_t_1429-1438_28"
    INDEX 01 00:38:62
  TRACK 29 AUDIO
    TITLE "1Q_t_1429-1438_29"
    INDEX 01 00:39:55
  TRACK 30 AUDIO
    TITLE "1Q_t_1429-1438_30"
    INDEX 01 00:39:65
  TRACK 31 AUDIO
    TITLE "1Q_t_1429-1438_31"
    INDEX 01 00:41:25
  TRACK 32 AUDIO
    TITLE "1Q_t_1429-1438_32"
    INDEX 01 00:41:33
  TRACK 33 AUDIO
    TITLE "1Q_t_1429-1438_33"
    INDEX 01 00:45:23
  TRACK 34 AUDIO
    TITLE "1Q_t_1429-1438_34"
    INDEX 01 00:45:68
  TRACK 35 AUDIO
    TITLE "1Q_t_1429-1438_35"
    INDEX 01 00:47:10
  TRACK 36 AUDIO
    TITLE "1Q_t_1429-1438_36"
    INDEX 01 00:47:18
  TRACK 37 AUDIO
    TITLE "1Q_t_1429-1438_37"
    INDEX 01 00:49:07
  TRACK 38 AUDIO
    TITLE "1Q_t_1429-1438_38"
    INDEX 01 00:49:13
  TRACK 39 AUDIO
    TITLE "1Q_t_1429-1438_39"
    INDEX 01 00:53:42
  TRACK 40 AUDIO
    TITLE "1Q_t_1429-1438_40"
    INDEX 01 00:54:10
  TRACK 41 AUDIO
    TITLE "1Q_t_1429-1438_41"
    INDEX 01 00:55:35
  TRACK 42 AUDIO
    TITLE "1Q_t_1429-1438_42"
    INDEX 01 00:55:43
  TRACK 43 AUDIO
    TITLE "1Q_t_1429-1438_43"
    INDEX 01 00:59:37
  TRACK 44 AUDIO
    TITLE "1Q_t_1429-1438_44"
    INDEX 01 00:59:40
  TRACK 45 AUDIO
    TITLE "1Q_t_1429-1438_45"
    INDEX 01 01:05:04
  TRACK 46 AUDIO
    TITLE "1Q_t_1429-1438_46"
    INDEX 01 01:05:47
  TRACK 47 AUDIO
    TITLE "1Q_t_1429-1438_47"
    INDEX 01 01:06:48
  TRACK 48 AUDIO
    TITLE "1Q_t_1429-1438_48"
    INDEX 01 01:06:58
  TRACK 49 AUDIO
    TITLE "1Q_t_1429-1438_49"
    INDEX 01 01:09:10
  TRACK 50 AUDIO
    TITLE "1Q_t_1429-1438_50"
    INDEX 01 01:09:17
  TRACK 51 AUDIO
    TITLE "1Q_t_1429-1438_51"
    INDEX 01 01:14:28
  TRACK 52 AUDIO
    TITLE "1Q_t_1429-1438_52"
    INDEX 01 01:14:73
  TRACK 53 AUDIO
    TITLE "1Q_t_1429-1438_53"
    INDEX 01 01:16:17
  TRACK 54 AUDIO
    TITLE "1Q_t_1429-1438_54"
    INDEX 01 01:16:25
  TRACK 55 AUDIO
    TITLE "1Q_t_1429-1438_55"
    INDEX 01 01:17:36
  TRACK 56 AUDIO
    TITLE "1Q_t_1429-1438_56"
    INDEX 01 01:17:42
  TRACK 57 AUDIO
    TITLE "1Q_t_1429-1438_57"
    INDEX 01 01:21:42
  TRACK 58 AUDIO
    TITLE "1Q_t_1429-1438_58"
    INDEX 01 01:22:12
  TRACK 59 AUDIO
    TITLE "1Q_t_1429-1438_59"
    INDEX 01 01:23:17
  TRACK 60 AUDIO
    TITLE "1Q_t_1429-1438_60"
    INDEX 01 01:23:25
  TRACK 61 AUDIO
    TITLE "1Q_t_1429-1438_61"
    INDEX 01 01:26:14
  TRACK 62 AUDIO
    TITLE "1Q_t_1429-1438_62"
    INDEX 01 01:26:20
  TRACK 63 AUDIO
    TITLE "1Q_t_1429-1438_63"
    INDEX 01 01:30:66
